<?xml version="1.0" encoding="utf-8"?>
<!-- Generator: Adobe Illustrator 25.0.0, SVG Export Plug-In . SVG Version: 6.00 Build 0)  -->
<svg version="1.1" xmlns="http://www.w3.org/2000/svg" xmlns:xlink="http://www.w3.org/1999/xlink" x="0px" y="0px"
	 viewBox="0 0 800 800" style="enable-background:new 0 0 800 800;" xml:space="preserve">
<style type="text/css">
	.st0{display:none;}
	.st1{display:inline;}
	.st2{fill:none;}
	.st3{fill:#FCC146;}
	.st4{fill:#FCBF47;}
	.st5{fill:#020203;}
	.st6{fill:#FFFFFF;}
	.st7{display:inline;fill:#FFFFFF;}
</style>
<g id="Capa_1" class="st0">
	<g class="st1">
		<path d="M399.7,749.85c-56.77,0-113.54,0.02-170.31-0.01c-47.49-0.02-79.49-31.89-79.36-79.34c0.06-20.55-0.71-41.27,1.49-61.62
			c6.5-60.13,58.61-107.89,119.14-108.46c86.19-0.82,172.4-0.91,258.58,0.03c64.26,0.7,117.75,54.23,120.14,118.75
			c0.82,22.07,1.52,44.46-1.14,66.28c-4.72,38.6-35.86,64.22-75.11,64.33C515.33,749.96,457.52,749.84,399.7,749.85z M399.49,700.21
			c57.79,0,115.57,0.03,173.36-0.02c16.98-0.02,27.12-10.24,27.2-27.27c0.07-16.4,0.19-32.81-0.04-49.21
			c-0.58-40.49-33.32-73.68-73.72-73.83c-84.34-0.31-168.67-0.28-253.01-0.01c-35.64,0.12-66.98,26.2-71.94,61.62
			c-2.76,19.69-1.48,39.96-1.68,59.98c-0.2,19.08,9.66,28.72,28.83,28.73C285.48,700.23,342.49,700.22,399.49,700.21z"/>
		<path d="M549.65,299.82c0.02,82.64-67.54,150.08-150.18,149.9c-82.29-0.18-149.45-67.51-149.47-149.83
			c-0.01-82.65,67.52-150.05,150.18-149.88C482.5,150.18,549.63,217.46,549.65,299.82z M500.04,300.14
			c0.08-55.5-44.72-100.48-100.13-100.5c-55.1-0.02-100.12,44.67-100.29,99.55c-0.18,55.59,44.48,100.77,99.73,100.91
			C454.89,400.22,499.95,355.48,500.04,300.14z"/>
		<rect x="-0.09" class="st2" width="800" height="800"/>
		<rect x="-0.09" y="0" class="st2" width="800" height="800"/>
	</g>
</g>
<g id="Capa_2" class="st0">
	<path class="st1" d="M248.59,402.62c0.74,0.51,3.4,1.81,5.4,3.79c78.45,77.73,156.81,155.55,235.29,233.25
		c7.55,7.47,12.88,15.71,12.71,26.61c-0.22,14.38-6.87,24.98-20,30.82c-13.53,6.02-26.15,3.51-36.68-6.68
		c-19.65-19.02-38.94-38.41-58.35-57.68c-69.33-68.81-138.64-137.63-207.96-206.44c-17.25-17.12-17.36-36.07-0.1-53.2
		c87.81-87.15,175.86-174.08,263.33-261.57c18.25-18.25,44.49-13.89,55,3.58c8.42,14,6.44,30.23-6.06,42.7
		c-37.06,36.98-74.47,73.61-111.31,110.81C336.43,312.48,293.45,356.78,248.59,402.62z"/>
</g>
<g id="Capa_3" class="st0">
	<path class="st1" d="M398.6,798.78c-218.04-1.53-396.2-173.92-398.58-396C-2.35,180.63,176.85,0,399.13,0
		c220.04,0,398.5,176.3,399.38,397.51C799.38,619.8,621.71,797.83,398.6,798.78z M372.16,372.19c-4.23,0-7.25,0-10.27,0
		c-40,0-79.99-0.03-119.99,0.05c-3.57,0.01-7.3,0.14-10.66,1.15c-13.16,3.98-20.88,16.69-18.89,30.43
		c1.83,12.65,13.37,22.55,26.95,22.58c41.11,0.11,82.21,0.04,123.32,0.05c2.95,0,5.91,0,9.55,0c0,4.04,0,7.04,0,10.04
		c0,40.27-0.03,80.55,0.02,120.82c0.02,17.21,11.32,29.19,27.27,29.12c15.9-0.06,26.94-12.05,26.96-29.44
		c0.04-40.27,0.01-80.55,0.01-120.82c0-2.97,0-5.94,0-9.73c3.89,0,6.88,0,9.86,0c40,0,79.99,0.02,119.99-0.04
		c3.57-0.01,7.3-0.06,10.69-1.03c13.11-3.76,21.07-16.48,19.3-30.2c-1.64-12.69-13.16-22.89-26.61-22.94
		c-41.11-0.13-82.21-0.05-123.32-0.06c-3.19,0-6.38,0-9.91,0c0-44.14,0.01-86.9-0.01-129.66c-0.01-18.17-10.76-30.24-26.91-30.33
		c-16.64-0.08-27.33,11.88-27.34,30.69c-0.02,26.39-0.01,52.77-0.01,79.16C372.16,338.39,372.16,354.73,372.16,372.19z"/>
</g>
<g id="Capa_4" class="st0">
	<path class="st1" d="M371.63,0c18.75,0,37.5,0,56.25,0c1.96,0.51,3.89,1.22,5.88,1.48c13.88,1.84,27.93,2.84,41.65,5.5
		c69.5,13.47,131.46,43,184.92,89.49c74.15,64.48,119.51,145.2,134.83,242.49c1.72,10.95,3.09,21.95,4.62,32.93
		c0,18.75,0,37.5,0,56.25c-0.49,1.7-1.31,3.38-1.42,5.1c-1.77,27.87-7.12,55.11-15.17,81.78
		C725.03,707.5,532.06,831.88,324.36,793.14c-69.66-12.99-132.16-42.4-185.05-89.65C25.42,601.73-18.4,474.45,6.97,324.23
		c11.75-69.6,42.68-131.15,89-184.5c64.49-74.3,145.28-119.75,242.69-135.1C349.62,2.89,360.64,1.53,371.63,0z M400.63,454.55
		c2.46,3.01,4.1,5.41,6.11,7.43c35.32,35.39,70.68,70.75,106.06,106.08c2.94,2.94,5.98,5.83,9.26,8.36
		c15.78,12.19,39.11,9.71,52.13-5.41c14.58-16.93,13.02-38.46-4.34-55.87c-36.21-36.34-72.54-72.57-108.8-108.86
		c-1.96-1.96-3.8-4.06-7.14-7.64c2.85-2,5.5-3.34,7.5-5.34c35.6-35.48,71.14-71.03,106.65-106.6c2.75-2.76,5.45-5.61,7.86-8.67
		c12.52-15.98,10.03-39.59-5.47-52.7c-16.78-14.2-38.24-12.65-55.3,4.33c-36.54,36.38-72.95,72.9-109.42,109.35
		c-1.93,1.93-4,3.71-6.9,6.4c-2.4-2.94-4.04-5.33-6.06-7.35c-35.32-35.39-70.68-70.75-106.07-106.08c-2.94-2.94-5.98-5.83-9.26-8.36
		c-15.78-12.19-39.13-9.7-52.13,5.43c-14.56,16.93-12.99,38.45,4.36,55.87c36.21,36.34,72.54,72.57,108.8,108.86
		c1.96,1.96,3.8,4.05,6.73,7.2c-2.71,2.18-5.12,3.77-7.13,5.77c-35.58,35.5-71.12,71.05-106.63,106.61
		c-2.75,2.76-5.45,5.61-7.85,8.67c-12.52,15.99-10.02,39.58,5.49,52.69c16.81,14.22,38.2,12.68,55.29-4.33
		c36.36-36.2,72.58-72.53,108.87-108.8C395.21,459.6,397.3,457.71,400.63,454.55z"/>
</g>
<g id="Capa_5" class="st0">
	<g class="st1">
		<path class="st3" d="M0.03,0.09C0.02,0.09,0.01,0.09,0,0.09C0.01,0.09,0.02,0.09,0.03,0.09z"/>
		<path class="st4" d="M0.09,0.09c-0.01,0.01-0.02,0.01-0.03,0C0.07,0.09,0.08,0.09,0.09,0.09z"/>
		<path class="st5" d="M800,363.82c0,24.45,0,48.9,0,73.34c-1.61,0.77-2.14,2.13-2.16,3.81c-0.01,1.33,0,2.67-0.16,3.99
			c-3.66,29.98-9.99,59.36-19.87,87.94c-10.41,30.1-24.24,58.51-42.21,84.81c-23.01,33.69-50,63.87-81.01,90.4
			c-36.73,31.44-77.77,55.44-123.65,70.95c-46.57,15.74-94.5,21.55-143.49,19.69c-22.59-0.86-45.03-3.15-67.27-7.27
			c-45.45-8.41-88.01-24.4-127.44-48.59c-34.75-21.32-65.1-47.8-91.81-78.54c-25.44-29.28-46.98-61.14-63.61-96.23
			C10.16,510.82-1.4,450.35,1,387.09c0.87-22.82,3.36-45.46,7.78-67.87c7.09-35.95,18.99-70.22,35.99-102.68
			c23.57-45,54.9-83.89,92.88-117.48c55.51-49.11,120.18-79.24,192.88-92.6c8.67-1.59,17.49-2.09,26.18-3.56
			c3.8-0.64,7.49-2.29,11.22-2.49c6.31-0.35,12.72-0.89,19.03,0.44c1.77,0.37,3.57,0.51,5.3,0.15c5.29-1.12,10.53-1.15,15.82-0.01
			c1.8,0.39,3.7,0.34,5.51-0.18c1.8-0.53,3.63-0.52,5.48-0.61c10.4-0.49,20.69,1.1,31.04,1.45c11.93,0.41,23.78,1.62,35.48,4.06
			c32.7,6.82,63.95,17.99,93.88,32.64c44.11,21.6,82.65,50.86,116,86.84c43.49,46.93,74.68,100.96,92.36,162.59
			c3.94,13.73,7.43,27.58,9.26,41.79c1.35,10.44,1.26,20.98,2.02,31.46C799.18,362.03,798.94,363.13,800,363.82z M190.17,663.16
			c-0.17,3.35,0.03,6.67,1.3,9.82c1.46,3.61,4.05,5.74,8,6.1c4.94,0.45,9.27-1.46,13.6-3.42c34.53-15.58,69.05-31.18,103.6-46.73
			c4.51-2.03,8.17-4.94,11.01-9.02c10.23-14.71,20.53-29.38,30.8-44.06c68.88-98.39,137.77-196.78,206.65-295.17
			c12.27-17.53,24.59-35.03,36.77-52.63c5.15-7.44,8.38-15.67,8.64-24.83c0.35-12.52-4.89-22.67-13.86-31.03
			c-6.75-6.28-14.67-11.03-22.17-16.32c-13.43-9.48-26.85-18.98-40.51-28.12c-10.12-6.76-21.35-9.48-33.45-6.58
			c-11.32,2.71-19.57,9.79-26.1,19.11c-25.76,36.74-51.49,73.51-77.24,110.26c-34.96,49.91-69.93,99.83-104.9,149.74
			c-30.55,43.6-61.1,87.2-91.67,130.8c-2.84,4.05-4.51,8.48-4.74,13.42c-0.54,11.98-1.03,23.96-1.6,35.94
			c-0.7,14.64-1.47,29.27-2.2,43.91C191.46,637.29,190.82,650.23,190.17,663.16z"/>
		<path class="st5" d="M233.52,587.89c0.52-11.09,1.09-22.18,1.54-33.27c0.11-2.77,0.94-5.17,2.53-7.42
			c31.71-45.22,63.42-90.44,95.08-135.69c43.46-62.11,86.89-124.25,130.33-186.38c3.75-5.36,5.58-5.71,10.82-1.91
			c16.11,11.71,32.46,23.08,48.93,34.28c0.31,0.21,0.61,0.41,0.92,0.62c5.15,3.55,5.47,5.31,1.85,10.48
			c-15.64,22.31-31.31,44.6-46.94,66.91c-59.35,84.71-118.69,169.41-177.99,254.15c-2.16,3.08-4.74,5.25-8.2,6.8
			c-19.39,8.65-38.7,17.47-58.04,26.23c-2.5,1.13-2.55,1.13-2.42-1.53c0.51-11.09,1.05-22.18,1.58-33.27
			C233.51,587.89,233.51,587.89,233.52,587.89z"/>
		<path class="st5" d="M510.51,160.23c1.26-0.02,2.3,0.57,3.27,1.25c18.07,12.66,36.13,25.33,54.17,38.02
			c2.91,2.05,3.12,3.76,1.05,6.74c-4.56,6.57-9.13,13.13-13.7,19.69c-0.25,0.36-0.45,0.78-0.76,1.09c-0.84,0.85-0.75,2.81-1.8,2.81
			c-1.14,0-2.34-1.1-3.42-1.85c-17.38-12.1-34.74-24.21-52.11-36.32c-1.09-0.76-2.22-1.48-3.28-2.28c-2.8-2.12-3.08-3.9-1.04-6.81
			c3.54-5.02,7.12-10.01,10.67-15.03c1.2-1.69,2.31-3.44,3.51-5.13C507.92,161.23,508.94,160.28,510.51,160.23z"/>
	</g>
</g>
<g id="Capa_6">
	<path class="st6" d="M131.41,638.22c68.69,56.27,148.33,82.62,237,81.1c63.52-1.09,122.62-18.3,176.87-51.57
		c2.2-1.35,4.46-2.58,7.01-4.05c19.49,19.48,38.79,38.79,58.11,58.08c12.88,12.87,26.12,25.41,38.58,38.67
		c16.95,18.05,35.1,33.9,60.41,38.84c6.77,0,13.54,0,20.31,0c22.7-4.78,42.45-15.02,55.01-34.86c6.78-10.71,10.31-23.48,15.3-35.32
		c0-6.76,0-13.52,0-20.27c-4.88-24.97-20.7-42.71-38.29-59.78c-32.84-31.88-64.96-64.49-96.53-95.95
		c10.32-21.25,21.56-41.23,30.01-62.32C765.67,314.83,682.99,111,509.97,33.07C366.77-31.42,199.42,2.3,93.66,117.7
		C42.29,173.75,12.19,239.99,2.9,315.52c-0.91,7.4-1.93,14.79-2.9,22.19c0,15.07,0,30.15,0,45.22c2,14.1,3.5,28.29,6.07,42.28
		C21.91,511.37,63.66,582.73,131.41,638.22z M360.71,80.6c155.86,0.69,280.08,125.13,279.35,279.85
		c-0.73,153.9-126.46,279.28-280.03,279.24C203.87,639.66,78.86,514.4,79.91,359.02C80.96,203.32,205.42,79.91,360.71,80.6z"/>
</g>
<g id="Capa_7" class="st0">
	<path class="st7" d="M428.95,423.92c38.57-46.28,77.08-92.61,115.69-138.86c16.3-19.52,40.71-22.41,58.65-7.16
		c17.17,14.6,18.04,39.37,2.09,58.51c-64.75,77.69-129.5,155.38-194.23,233.08c-18.81,22.59-42.5,24.18-64.15,4.43
		c-38.06-34.71-76.23-69.31-114.33-103.98c-24.44-22.23-17.49-59.5,13.08-68.88c14.84-4.55,28.23-1.06,39.81,9.52
		c25.35,23.17,50.82,46.21,76.24,69.3c3.67,3.34,7.36,6.66,11.64,10.53C392.21,467.93,410.6,445.94,428.95,423.92z"/>
</g>
</svg>
