<?xml version="1.0" encoding="utf-8"?>
<!-- Generator: Adobe Illustrator 25.0.0, SVG Export Plug-In . SVG Version: 6.00 Build 0)  -->
<svg version="1.1" xmlns="http://www.w3.org/2000/svg" xmlns:xlink="http://www.w3.org/1999/xlink" x="0px" y="0px"
	 viewBox="0 0 800 800" style="enable-background:new 0 0 800 800;" xml:space="preserve">
<style type="text/css">
	.st0{display:none;}
	.st1{display:inline;}
	.st2{fill:none;}
</style>
<g id="Capa_1" class="st0">
	<g class="st1">
		<path d="M399.7,749.85c-56.77,0-113.54,0.02-170.31-0.01c-47.49-0.02-79.49-31.89-79.36-79.34c0.06-20.55-0.71-41.27,1.49-61.62
			c6.5-60.13,58.61-107.89,119.14-108.46c86.19-0.82,172.4-0.91,258.58,0.03c64.26,0.7,117.75,54.23,120.14,118.75
			c0.82,22.07,1.52,44.46-1.14,66.28c-4.72,38.6-35.86,64.22-75.11,64.33C515.33,749.96,457.52,749.84,399.7,749.85z M399.49,700.21
			c57.79,0,115.57,0.03,173.36-0.02c16.98-0.02,27.12-10.24,27.2-27.27c0.07-16.4,0.19-32.81-0.04-49.21
			c-0.58-40.49-33.32-73.68-73.72-73.83c-84.34-0.31-168.67-0.28-253.01-0.01c-35.64,0.12-66.98,26.2-71.94,61.62
			c-2.76,19.69-1.48,39.96-1.68,59.98c-0.2,19.08,9.66,28.72,28.83,28.73C285.48,700.23,342.49,700.22,399.49,700.21z"/>
		<path d="M549.65,299.82c0.02,82.64-67.54,150.08-150.18,149.9c-82.29-0.18-149.45-67.51-149.47-149.83
			c-0.01-82.65,67.52-150.05,150.18-149.88C482.5,150.18,549.63,217.46,549.65,299.82z M500.04,300.14
			c0.08-55.5-44.72-100.48-100.13-100.5c-55.1-0.02-100.12,44.67-100.29,99.55c-0.18,55.59,44.48,100.77,99.73,100.91
			C454.89,400.22,499.95,355.48,500.04,300.14z"/>
		<rect x="-0.09" class="st2" width="800" height="800"/>
		<rect x="-0.09" y="0" class="st2" width="800" height="800"/>
	</g>
</g>
<g id="Capa_2" class="st0">
	<path class="st1" d="M248.59,402.62c0.74,0.51,3.4,1.81,5.4,3.79c78.45,77.73,156.81,155.55,235.29,233.25
		c7.55,7.47,12.88,15.71,12.71,26.61c-0.22,14.38-6.87,24.98-20,30.82c-13.53,6.02-26.15,3.51-36.68-6.68
		c-19.65-19.02-38.94-38.41-58.35-57.68c-69.33-68.81-138.64-137.63-207.96-206.44c-17.25-17.12-17.36-36.07-0.1-53.2
		c87.81-87.15,175.86-174.08,263.33-261.57c18.25-18.25,44.49-13.89,55,3.58c8.42,14,6.44,30.23-6.06,42.7
		c-37.06,36.98-74.47,73.61-111.31,110.81C336.43,312.48,293.45,356.78,248.59,402.62z"/>
</g>
<g id="Capa_3" class="st0">
	<path class="st1" d="M398.6,798.78c-218.04-1.53-396.2-173.92-398.58-396C-2.35,180.63,176.85,0,399.13,0
		c220.04,0,398.5,176.3,399.38,397.51C799.38,619.8,621.71,797.83,398.6,798.78z M372.16,372.19c-4.23,0-7.25,0-10.27,0
		c-40,0-79.99-0.03-119.99,0.05c-3.57,0.01-7.3,0.14-10.66,1.15c-13.16,3.98-20.88,16.69-18.89,30.43
		c1.83,12.65,13.37,22.55,26.95,22.58c41.11,0.11,82.21,0.04,123.32,0.05c2.95,0,5.91,0,9.55,0c0,4.04,0,7.04,0,10.04
		c0,40.27-0.03,80.55,0.02,120.82c0.02,17.21,11.32,29.19,27.27,29.12c15.9-0.06,26.94-12.05,26.96-29.44
		c0.04-40.27,0.01-80.55,0.01-120.82c0-2.97,0-5.94,0-9.73c3.89,0,6.88,0,9.86,0c40,0,79.99,0.02,119.99-0.04
		c3.57-0.01,7.3-0.06,10.69-1.03c13.11-3.76,21.07-16.48,19.3-30.2c-1.64-12.69-13.16-22.89-26.61-22.94
		c-41.11-0.13-82.21-0.05-123.32-0.06c-3.19,0-6.38,0-9.91,0c0-44.14,0.01-86.9-0.01-129.66c-0.01-18.17-10.76-30.24-26.91-30.33
		c-16.64-0.08-27.33,11.88-27.34,30.69c-0.02,26.39-0.01,52.77-0.01,79.16C372.16,338.39,372.16,354.73,372.16,372.19z"/>
</g>
<g id="Capa_4">
	<path d="M371.63,0c18.75,0,37.5,0,56.25,0c1.96,0.51,3.89,1.22,5.88,1.48c13.88,1.84,27.93,2.84,41.65,5.5
		c69.5,13.47,131.46,43,184.92,89.49c74.15,64.48,119.51,145.2,134.83,242.49c1.72,10.95,3.09,21.95,4.62,32.93
		c0,18.75,0,37.5,0,56.25c-0.49,1.7-1.31,3.38-1.42,5.1c-1.77,27.87-7.12,55.11-15.17,81.78
		C725.03,707.5,532.06,831.88,324.36,793.14c-69.66-12.99-132.16-42.4-185.05-89.65C25.42,601.73-18.4,474.45,6.97,324.23
		c11.75-69.6,42.68-131.15,89-184.5c64.49-74.3,145.28-119.75,242.69-135.1C349.62,2.89,360.64,1.53,371.63,0z M400.63,454.55
		c2.46,3.01,4.1,5.41,6.11,7.43c35.32,35.39,70.68,70.75,106.06,106.08c2.94,2.94,5.98,5.83,9.26,8.36
		c15.78,12.19,39.11,9.71,52.13-5.41c14.58-16.93,13.02-38.46-4.34-55.87c-36.21-36.34-72.54-72.57-108.8-108.86
		c-1.96-1.96-3.8-4.06-7.14-7.64c2.85-2,5.5-3.34,7.5-5.34c35.6-35.48,71.14-71.03,106.65-106.6c2.75-2.76,5.45-5.61,7.86-8.67
		c12.52-15.98,10.03-39.59-5.47-52.7c-16.78-14.2-38.24-12.65-55.3,4.33c-36.54,36.38-72.95,72.9-109.42,109.35
		c-1.93,1.93-4,3.71-6.9,6.4c-2.4-2.94-4.04-5.33-6.06-7.35c-35.32-35.39-70.68-70.75-106.07-106.08c-2.94-2.94-5.98-5.83-9.26-8.36
		c-15.78-12.19-39.13-9.7-52.13,5.43c-14.56,16.93-12.99,38.45,4.36,55.87c36.21,36.34,72.54,72.57,108.8,108.86
		c1.96,1.96,3.8,4.05,6.73,7.2c-2.71,2.18-5.12,3.77-7.13,5.77c-35.58,35.5-71.12,71.05-106.63,106.61
		c-2.75,2.76-5.45,5.61-7.85,8.67c-12.52,15.99-10.02,39.58,5.49,52.69c16.81,14.22,38.2,12.68,55.29-4.33
		c36.36-36.2,72.58-72.53,108.87-108.8C395.21,459.6,397.3,457.71,400.63,454.55z"/>
</g>
</svg>
