<?xml version="1.0" encoding="utf-8"?>
<!-- Generator: Adobe Illustrator 25.0.0, SVG Export Plug-In . SVG Version: 6.00 Build 0)  -->
<svg version="1.1" xmlns="http://www.w3.org/2000/svg" xmlns:xlink="http://www.w3.org/1999/xlink" x="0px" y="0px"
	 viewBox="0 0 800 800" style="enable-background:new 0 0 800 800;" xml:space="preserve">
<style type="text/css">
	.st0{display:none;}
	.st1{display:inline;}
	.st2{fill:none;}
	.st3{fill:#FFFFFF;}
	.st4{display:inline;fill:#FFFFFF;}
</style>
<g id="Capa_1" class="st0">
	<g class="st1">
		<path d="M399.7,749.85c-56.77,0-113.54,0.02-170.31-0.01c-47.49-0.02-79.49-31.89-79.36-79.34c0.06-20.55-0.71-41.27,1.49-61.62
			c6.5-60.13,58.61-107.89,119.14-108.46c86.19-0.82,172.4-0.91,258.58,0.03c64.26,0.7,117.75,54.23,120.14,118.75
			c0.82,22.07,1.52,44.46-1.14,66.28c-4.72,38.6-35.86,64.22-75.11,64.33C515.33,749.96,457.52,749.84,399.7,749.85z M399.49,700.21
			c57.79,0,115.57,0.03,173.36-0.02c16.98-0.02,27.12-10.24,27.2-27.27c0.07-16.4,0.19-32.81-0.04-49.21
			c-0.58-40.49-33.32-73.68-73.72-73.83c-84.34-0.31-168.67-0.28-253.01-0.01c-35.64,0.12-66.98,26.2-71.94,61.62
			c-2.76,19.69-1.48,39.96-1.68,59.98c-0.2,19.08,9.66,28.72,28.83,28.73C285.48,700.23,342.49,700.22,399.49,700.21z"/>
		<path d="M549.65,299.82c0.02,82.64-67.54,150.08-150.18,149.9c-82.29-0.18-149.45-67.51-149.47-149.83
			c-0.01-82.65,67.52-150.05,150.18-149.88C482.5,150.18,549.63,217.46,549.65,299.82z M500.04,300.14
			c0.08-55.5-44.72-100.48-100.13-100.5c-55.1-0.02-100.12,44.67-100.29,99.55c-0.18,55.59,44.48,100.77,99.73,100.91
			C454.89,400.22,499.95,355.48,500.04,300.14z"/>
		<rect x="-0.09" class="st2" width="800" height="800"/>
		<rect x="-0.09" y="0" class="st2" width="800" height="800"/>
	</g>
</g>
<g id="Capa_2" class="st0">
	<path class="st1" d="M248.59,402.62c0.74,0.51,3.4,1.81,5.4,3.79c78.45,77.73,156.81,155.55,235.29,233.25
		c7.55,7.47,12.88,15.71,12.71,26.61c-0.22,14.38-6.87,24.98-20,30.82c-13.53,6.02-26.15,3.51-36.68-6.68
		c-19.65-19.02-38.94-38.41-58.35-57.68c-69.33-68.81-138.64-137.63-207.96-206.44c-17.25-17.12-17.36-36.07-0.1-53.2
		c87.81-87.15,175.86-174.08,263.33-261.57c18.25-18.25,44.49-13.89,55,3.58c8.42,14,6.44,30.23-6.06,42.7
		c-37.06,36.98-74.47,73.61-111.31,110.81C336.43,312.48,293.45,356.78,248.59,402.62z"/>
</g>
<g id="Capa_3">
	<path class="st3" d="M240.02,427.09c41.11,0.11,82.21,0.04,123.32,0.05c2.95,0,5.91,0,9.55,0c0,4.04,0,7.04,0,10.04
		c0,40.27-0.03,80.55,0.02,120.82c0.02,17.21,11.32,29.19,27.27,29.12c15.9-0.06,26.94-12.05,26.96-29.44
		c0.04-40.27,0.01-80.55,0.01-120.82c0-2.97,0-5.94,0-9.73c3.89,0,6.88,0,9.86,0c40,0,79.99,0.02,119.99-0.04
		c3.57-0.01,7.3-0.06,10.69-1.03c13.11-3.76,21.07-16.48,19.3-30.2c-1.64-12.69-13.16-22.89-26.61-22.94
		c-41.11-0.13-82.21-0.05-123.32-0.06c-3.19,0-6.38,0-9.91,0c0-44.14,0.01-86.9-0.01-129.66c-0.01-18.17-10.76-30.24-26.91-30.33
		c-16.64-0.08-27.33,11.88-27.34,30.69c-0.02,26.39-0.01,52.77-0.01,79.16c0,16.34,0,32.69,0,50.14c-4.23,0-7.25,0-10.27,0
		c-40,0-79.99-0.03-119.99,0.05c-3.57,0.01-7.3,0.14-10.66,1.15c-13.16,3.98-20.88,16.69-18.89,30.43
		C214.91,417.16,226.44,427.05,240.02,427.09z"/>
</g>
<g id="Capa_4" class="st0">
	<path class="st4" d="M568.3,286.67c2.75-2.76,5.45-5.61,7.86-8.67c12.52-15.98,10.03-39.59-5.47-52.7
		c-16.78-14.2-38.24-12.65-55.3,4.33c-36.54,36.38-72.95,72.9-109.42,109.35c-1.93,1.93-4,3.71-6.9,6.4
		c-2.4-2.94-4.04-5.33-6.06-7.35c-35.32-35.39-70.68-70.75-106.07-106.08c-2.94-2.94-5.98-5.83-9.26-8.36
		c-15.78-12.19-39.13-9.7-52.13,5.43c-14.56,16.93-12.99,38.45,4.36,55.87c36.21,36.34,72.54,72.57,108.8,108.86
		c1.96,1.96,3.8,4.05,6.73,7.2c-2.71,2.18-5.12,3.77-7.13,5.77c-35.58,35.5-71.12,71.05-106.63,106.61
		c-2.75,2.76-5.45,5.61-7.85,8.67c-12.52,15.99-10.02,39.58,5.49,52.69c16.81,14.22,38.2,12.68,55.29-4.33
		c36.36-36.2,72.58-72.53,108.87-108.8c1.99-1.99,4.07-3.88,7.4-7.04c2.46,3.01,4.1,5.41,6.11,7.43
		c35.32,35.39,70.68,70.75,106.06,106.08c2.94,2.94,5.98,5.83,9.26,8.36c15.78,12.19,39.11,9.71,52.13-5.41
		c14.58-16.93,13.02-38.46-4.34-55.87c-36.21-36.34-72.54-72.57-108.8-108.86c-1.96-1.96-3.8-4.06-7.14-7.64
		c2.85-2,5.5-3.34,7.5-5.34C497.26,357.79,532.79,322.24,568.3,286.67z"/>
</g>
<g id="Capa_5" class="st0">
	<path class="st4" d="M200.32,531.49c-2.84,4.05-4.51,8.48-4.74,13.42c-0.54,11.98-1.03,23.96-1.6,35.94
		c-0.7,14.64-1.47,29.27-2.2,43.91c-0.65,12.94-1.29,25.87-1.94,38.81c-0.17,3.35,0.03,6.67,1.3,9.82c1.46,3.61,4.05,5.74,8,6.1
		c4.94,0.45,9.27-1.46,13.6-3.42c34.53-15.58,69.05-31.18,103.6-46.73c4.51-2.03,8.17-4.94,11.01-9.02
		c10.23-14.71,20.53-29.38,30.8-44.06c68.88-98.39,137.77-196.78,206.65-295.17c12.27-17.53,24.59-35.03,36.77-52.63
		c5.15-7.44,8.38-15.67,8.64-24.83c0.35-12.52-4.89-22.67-13.86-31.03c-6.75-6.28-14.67-11.03-22.17-16.32
		c-13.43-9.48-26.85-18.98-40.51-28.12c-10.12-6.76-21.35-9.48-33.45-6.58c-11.32,2.71-19.57,9.79-26.1,19.11
		c-25.76,36.74-51.49,73.51-77.24,110.26c-34.96,49.91-69.93,99.83-104.9,149.74C261.43,444.3,230.88,487.9,200.32,531.49z
		 M492.57,182.97c3.54-5.02,7.12-10.01,10.67-15.03c1.2-1.69,2.31-3.44,3.51-5.13c0.83-1.17,1.85-2.13,3.42-2.18
		c1.26-0.02,2.3,0.57,3.27,1.25c18.07,12.66,36.13,25.33,54.17,38.02c2.91,2.05,3.12,3.76,1.05,6.74
		c-4.56,6.57-9.13,13.13-13.7,19.69c-0.25,0.36-0.45,0.78-0.76,1.09c-0.84,0.85-0.75,2.81-1.8,2.81c-1.14,0-2.34-1.1-3.42-1.85
		c-17.38-12.1-34.74-24.21-52.11-36.32c-1.09-0.76-2.22-1.48-3.28-2.28C490.81,187.66,490.52,185.88,492.57,182.97z M462.67,225.53
		c3.75-5.36,5.58-5.71,10.82-1.91c16.11,11.71,32.46,23.08,48.93,34.28c0.31,0.21,0.61,0.41,0.92,0.62
		c5.15,3.55,5.47,5.31,1.85,10.48c-15.64,22.31-31.31,44.6-46.94,66.91c-59.35,84.71-118.69,169.41-177.99,254.15
		c-2.16,3.08-4.74,5.25-8.2,6.8c-19.39,8.65-38.7,17.47-58.04,26.23c-2.5,1.13-2.55,1.13-2.42-1.53
		c0.51-11.09,1.05-22.18,1.58-33.27c0.01,0,0.01,0,0.02,0c0.52-11.09,1.09-22.18,1.54-33.27c0.11-2.77,0.94-5.17,2.53-7.42
		c31.71-45.22,63.42-90.44,95.08-135.69C375.79,349.8,419.22,287.66,462.67,225.53z"/>
</g>
<g id="Capa_6" class="st0">
	<path class="st4" d="M131.41,638.22c68.69,56.27,148.33,82.62,237,81.1c63.52-1.09,122.62-18.3,176.87-51.57
		c2.2-1.35,4.46-2.58,7.01-4.05c19.49,19.48,38.79,38.79,58.11,58.08c12.88,12.87,26.12,25.41,38.58,38.67
		c16.95,18.05,35.1,33.9,60.41,38.84c6.77,0,13.54,0,20.31,0c22.7-4.78,42.45-15.02,55.01-34.86c6.78-10.71,10.31-23.48,15.3-35.32
		c0-6.76,0-13.52,0-20.27c-4.88-24.97-20.7-42.71-38.29-59.78c-32.84-31.88-64.96-64.49-96.53-95.95
		c10.32-21.25,21.56-41.23,30.01-62.32C765.67,314.83,682.99,111,509.97,33.07C366.77-31.42,199.42,2.3,93.66,117.7
		C42.29,173.75,12.19,239.99,2.9,315.52c-0.91,7.4-1.93,14.79-2.9,22.19c0,15.07,0,30.15,0,45.22c2,14.1,3.5,28.29,6.07,42.28
		C21.91,511.37,63.66,582.73,131.41,638.22z M360.71,80.6c155.86,0.69,280.08,125.13,279.35,279.85
		c-0.73,153.9-126.46,279.28-280.03,279.24C203.87,639.66,78.86,514.4,79.91,359.02C80.96,203.32,205.42,79.91,360.71,80.6z"/>
</g>
<g id="Capa_7" class="st0">
	<path class="st4" d="M428.95,423.92c38.57-46.28,77.08-92.61,115.69-138.86c16.3-19.52,40.71-22.41,58.65-7.16
		c17.17,14.6,18.04,39.37,2.09,58.51c-64.75,77.69-129.5,155.38-194.23,233.08c-18.81,22.59-42.5,24.18-64.15,4.43
		c-38.06-34.71-76.23-69.31-114.33-103.98c-24.44-22.23-17.49-59.5,13.08-68.88c14.84-4.55,28.23-1.06,39.81,9.52
		c25.35,23.17,50.82,46.21,76.24,69.3c3.67,3.34,7.36,6.66,11.64,10.53C392.21,467.93,410.6,445.94,428.95,423.92z"/>
</g>
</svg>
