<?xml version="1.0" encoding="utf-8"?>
<!-- Generator: Adobe Illustrator 25.0.0, SVG Export Plug-In . SVG Version: 6.00 Build 0)  -->
<svg version="1.1" id="Capa_1" xmlns="http://www.w3.org/2000/svg" xmlns:xlink="http://www.w3.org/1999/xlink" x="0px" y="0px"
	 viewBox="0 0 800 800" style="enable-background:new 0 0 800 800;" xml:space="preserve">
<style type="text/css">
	.st0{fill:none;}
</style>
<g>
	<path d="M399.7,749.85c-56.77,0-113.54,0.02-170.31-0.01c-47.49-0.02-79.49-31.89-79.36-79.34c0.06-20.55-0.71-41.27,1.49-61.62
		c6.5-60.13,58.61-107.89,119.14-108.46c86.19-0.82,172.4-0.91,258.58,0.03c64.26,0.7,117.75,54.23,120.14,118.75
		c0.82,22.07,1.52,44.46-1.14,66.28c-4.72,38.6-35.86,64.22-75.11,64.33C515.33,749.96,457.52,749.84,399.7,749.85z M399.49,700.21
		c57.79,0,115.57,0.03,173.36-0.02c16.98-0.02,27.12-10.24,27.2-27.27c0.07-16.4,0.19-32.81-0.04-49.21
		c-0.58-40.49-33.32-73.68-73.72-73.83c-84.34-0.31-168.67-0.28-253.01-0.01c-35.64,0.12-66.98,26.2-71.94,61.62
		c-2.76,19.69-1.48,39.96-1.68,59.98c-0.2,19.08,9.66,28.72,28.83,28.73C285.48,700.23,342.49,700.22,399.49,700.21z"/>
	<path d="M549.65,299.82c0.02,82.64-67.54,150.08-150.18,149.9c-82.29-0.18-149.45-67.51-149.47-149.83
		c-0.01-82.65,67.52-150.05,150.18-149.88C482.5,150.18,549.63,217.46,549.65,299.82z M500.04,300.14
		c0.08-55.5-44.72-100.48-100.13-100.5c-55.1-0.02-100.12,44.67-100.29,99.55c-0.18,55.59,44.48,100.77,99.73,100.91
		C454.89,400.22,499.95,355.48,500.04,300.14z"/>
	<rect x="-0.09" class="st0" width="800" height="800"/>
	<rect x="-0.09" y="0" class="st0" width="800" height="800"/>
</g>
</svg>
